<?xml version="1.0"?>
<svg xmlns="http://www.w3.org/2000/svg" xmlns:xlink="http://www.w3.org/1999/xlink" version="1.1" id="Layer_1" x="0px" y="0px" width="100%" viewBox="0 0 500 500" enable-background="new 0 0 500 500" xml:space="preserve" style="background-color:transparent;">
<path fill="#6943BA" opacity="1.000000" stroke="none" d=" M287.361420,271.975525   C281.436157,273.978851 275.646820,276.939362 269.559845,277.803864   C252.174759,280.272949 235.183411,278.013214 221.722305,265.995331   C211.050095,256.467285 198.728210,257.646484 186.409958,256.960632   C181.369415,256.679962 179.184998,254.783859 179.035233,249.796417   C178.904068,245.427719 181.219528,243.165710 186.172852,242.989273   C189.001907,242.888519 191.866486,243.204147 194.657135,242.861038   C195.970062,242.699631 197.146362,241.427048 198.384583,240.657990   C198.178787,240.115158 197.973007,239.572311 197.767227,239.029480   C192.167191,239.029480 186.557480,239.224762 180.971115,238.948456   C178.104858,238.806717 175.056915,238.287491 172.511322,237.064285   C170.653641,236.171692 168.221878,233.791840 168.296448,232.179047   C168.412674,229.665436 170.156082,227.021866 171.804749,224.894272   C172.391541,224.136978 174.711777,224.722183 176.240753,224.695877   C181.960052,224.597412 188.110855,226.966888 193.373779,221.345749   C197.956543,221.354782 202.201721,221.395981 206.218765,222.374161   C208.826477,223.009171 211.062607,225.084610 213.533783,226.384308   C218.245499,228.862411 218.876938,228.127808 220.376343,222.853897   C221.958679,217.288361 224.525055,212.002579 226.661530,206.594574   C226.376144,210.690994 225.806198,214.791046 225.858643,218.883133   C226.016876,231.233200 230.901657,241.669220 240.570328,249.171722   C249.034653,255.739731 258.879211,256.282196 268.972839,252.722290   C270.460388,252.197647 272.179626,252.329834 274.001068,252.424377   C270.104065,254.779175 270.995636,257.093628 274.074219,259.218994   C275.947083,260.511993 278.248413,261.212982 280.029572,262.600586   C281.323639,263.608765 282.080994,265.305908 283.077637,266.695862   C282.838196,266.950165 282.598755,267.204468 282.359283,267.458771   C284.026672,268.964355 285.694061,270.469940 287.361420,271.975525  z"/>
<path fill="#D73997" opacity="1.000000" stroke="none" d=" M226.790741,206.194031   C224.525055,212.002579 221.958679,217.288361 220.376343,222.853897   C218.876938,228.127808 218.245499,228.862411 213.533783,226.384308   C211.062607,225.084610 208.826477,223.009171 206.218765,222.374161   C202.201721,221.395981 197.956543,221.354782 193.376007,220.965012   C192.943893,221.013931 193.005722,221.005829 192.976440,220.767639   C192.251053,220.368622 191.554932,220.207809 190.858810,220.046997   C190.858810,220.046997 190.453461,219.958389 190.038300,219.593597   C187.422791,218.815918 185.211548,218.004898 183.024109,218.064636   C176.399094,218.245621 170.859146,216.255814 164.934982,212.982086   C160.622299,210.598892 155.213120,206.319214 149.066757,209.638443   C150.771286,208.441193 152.378143,206.428299 154.199936,206.210114   C158.487885,205.696579 162.878403,206.037949 167.227432,206.036301   C175.707520,206.033112 184.189789,206.125992 192.665359,205.929245   C193.947952,205.899460 195.199341,204.525665 196.465164,203.773575   C196.274994,203.159637 196.084808,202.545715 195.894638,201.931793   C189.188889,201.931793 182.451950,202.310974 175.791245,201.763245   C172.708054,201.509705 169.253586,200.032669 166.963730,197.992233   C165.558411,196.739960 165.448273,193.274033 165.823730,190.976547   C166.290131,188.122635 168.989517,188.037842 171.595551,187.923462   C181.844406,187.473633 192.082428,186.776627 202.890594,186.155518   C206.324738,184.277039 208.852463,184.732224 211.912109,186.315796   C215.765808,188.310410 220.003189,188.767090 224.235504,186.324692   C226.626511,184.944916 229.443008,183.703064 232.117157,183.592575   C234.491074,183.494492 239.300690,181.889481 237.921906,187.762283   C236.963806,189.256241 235.972412,190.730057 235.053848,192.247955   C232.327164,196.753815 229.629166,201.277054 226.790741,206.194031  z"/>
<path fill="#F9645B" opacity="1.000000" stroke="none" d=" M238.283813,187.757431   C239.300690,181.889481 234.491074,183.494492 232.117157,183.592575   C229.443008,183.703064 226.626511,184.944916 224.235504,186.324692   C220.003189,188.767090 215.765808,188.310410 211.912109,186.315796   C208.852463,184.732224 206.324738,184.277039 203.224945,185.999115   C201.967941,184.542587 201.128342,182.356079 199.879227,182.089661   C197.180161,181.514023 194.265396,182.039825 191.449203,181.902634   C187.030823,181.687378 183.949112,178.447693 184.035202,174.324509   C184.131424,169.715454 186.936859,167.037277 191.717010,167.028809   C199.356583,167.015259 207.018768,167.373260 214.627319,166.885986   C219.220078,166.591873 223.729538,164.997131 228.992004,164.122528   C236.620575,164.839859 243.595398,165.024414 250.433273,166.088699   C263.203552,168.076324 273.892090,174.169525 282.174713,184.132004   C283.055573,185.191483 286.481964,186.809509 283.020569,189.024399   C272.967712,180.614426 261.299255,179.131683 249.058090,181.918320   C245.337402,182.765305 242.102905,185.748047 238.283813,187.757431  z"/>
<path fill="#D73997" opacity="1.000000" stroke="none" d=" M287.693970,271.967010   C285.694061,270.469940 284.026672,268.964355 282.359283,267.458771   C282.598755,267.204468 282.838196,266.950165 283.077637,266.695862   C282.080994,265.305908 281.323639,263.608765 280.029572,262.600586   C278.248413,261.212982 275.947083,260.511993 274.074219,259.218994   C270.995636,257.093628 270.104065,254.779175 274.404297,252.491348   C274.906799,251.901138 275.137085,251.381317 275.536011,251.138611   C281.698822,247.389481 285.058014,241.935379 285.164978,233.658752   C283.654022,233.658752 281.665985,233.727844 279.684174,233.646194   C272.964111,233.369263 266.184723,233.485336 259.549530,232.570023   C255.228958,231.973999 252.071121,226.192215 252.058624,221.025635   C252.045090,215.428680 254.587631,211.630753 259.481049,210.025848   C260.709778,209.622864 261.984558,209.360443 263.622009,209.495743   C263.831757,213.622818 265.776245,215.427704 268.981934,217.076431   C278.656281,222.052216 288.156464,227.379257 297.595734,232.793900   C301.833527,235.224838 305.764984,238.189835 309.835449,240.912506   C308.394653,253.607712 301.797516,263.025848 291.338409,269.977875   C290.268372,270.689117 289.132050,271.300659 287.693970,271.967010  z"/>
<path fill="#FBB049" opacity="1.000000" stroke="none" d=" M283.115387,189.356476   C286.481964,186.809509 283.055573,185.191483 282.174713,184.132004   C273.892090,174.169525 263.203552,168.076324 250.433273,166.088699   C243.595398,165.024414 236.620575,164.839859 229.371063,164.018860   C242.844101,155.444351 257.541443,153.219711 273.359619,156.555191   C281.908081,158.357742 289.726440,161.546982 296.444763,166.897903   C300.461487,170.097046 304.160431,174.053757 306.956757,178.350357   C312.411346,186.731476 307.554626,194.743484 296.345154,195.941803   C290.756866,196.539215 287.068695,192.870331 283.115387,189.356476  z"/>
<path fill="#F9645B" opacity="1.000000" stroke="none" d=" M309.898346,240.489487   C305.764984,238.189835 301.833527,235.224838 297.595734,232.793900   C288.156464,227.379257 278.656281,222.052216 268.981934,217.076431   C265.776245,215.427704 263.831757,213.622818 264.006165,209.571152   C275.765320,209.156891 287.670593,207.989807 299.234894,209.475998   C307.914886,210.591476 312.054626,219.460266 311.008423,228.869629   C310.594269,232.594666 310.306519,236.333771 309.898346,240.489487  z"/>
<path fill="#252525" opacity="1.000000" stroke="none" d=" M188.862244,303.053986   C193.441910,303.693237 197.638733,304.273895 201.805466,305.022156   C204.653244,305.533508 205.877579,307.208038 204.517578,310.022583   C203.071274,313.015839 201.130096,312.720062 198.508804,311.167755   C193.181717,308.013153 188.682724,309.063263 185.537064,314.085663   C183.268463,317.707794 183.094711,322.367584 186.134537,324.776337   C188.834885,326.916046 193.342178,326.936890 197.112442,327.433380   C197.899780,327.537079 198.952194,325.627838 200.553299,323.938385   C198.218369,323.467407 196.839951,323.489960 195.813766,322.899902   C194.735794,322.280090 193.995209,321.073486 193.107162,320.123352   C194.165924,319.269318 195.145416,317.837097 196.299591,317.678894   C198.888885,317.323853 201.606720,317.340149 204.185043,317.751587   C205.208481,317.914917 206.594803,319.425018 206.778000,320.498993   C207.192810,322.930786 207.071518,325.477081 206.969070,327.968628   C206.815979,331.691345 208.221024,337.193542 201.001587,333.702942   C200.594208,333.505981 199.804398,334.058960 199.207809,334.300476   C190.921844,337.655151 180.746643,334.211243 177.937973,327.095642   C173.816498,316.654144 178.218170,306.608459 188.862244,303.053986  z"/>
<path fill="#252525" opacity="1.000000" stroke="none" d=" M317.028931,329.130951   C316.864532,324.058716 316.926086,319.440521 316.442627,314.880066   C316.162567,312.238220 316.835052,311.174866 319.435577,311.009033   C323.299591,310.762543 327.282654,309.603149 330.970764,310.242157   C334.015839,310.769775 337.431763,312.744049 339.400909,315.133911   C343.280701,319.842773 342.886078,325.610382 339.704742,330.515930   C336.234955,335.866333 330.944397,337.287231 324.311951,334.179596   C324.184662,336.771912 324.557220,338.896759 323.854523,340.570068   C323.239014,342.035828 321.415833,342.994385 320.126129,344.177002   C319.109131,342.984833 317.362885,341.876526 317.214355,340.584534   C316.798431,336.966675 317.042542,333.272980 317.028931,329.130951  M327.399628,328.027924   C331.361755,329.950287 332.760315,327.435089 333.753479,324.316406   C334.771637,321.119171 333.783325,319.100159 330.518036,317.758423   C327.566895,316.545837 326.163269,317.972443 324.948151,320.085785   C323.208160,323.112030 323.644226,325.752319 327.399628,328.027924  z"/>
<path fill="#252525" opacity="1.000000" stroke="none" d=" M259.943909,330.538269   C254.499817,337.249786 246.550339,336.771790 240.991089,334.436432   C235.001373,331.920227 234.496689,329.292877 238.688477,325.473724   C241.972366,326.649139 245.128799,328.130188 248.448151,328.783661   C249.671753,329.024506 251.279587,327.313660 252.712158,326.493011   C251.713165,325.354187 250.896469,323.918976 249.663437,323.160706   C248.451935,322.415649 246.834381,322.254242 245.365891,322.017120   C239.400375,321.053741 235.991592,317.558380 236.041763,312.353302   C236.091537,307.190643 239.675659,303.026001 245.583267,302.832947   C249.548492,302.703369 253.635727,304.030457 257.511505,305.217865   C258.363556,305.478882 259.309753,308.273438 258.843323,309.241638   C258.320374,310.327118 256.242462,311.186188 254.841736,311.185242   C253.311813,311.184235 251.804108,309.645691 250.248016,309.569733   C247.980072,309.459015 245.677536,310.056274 243.389755,310.351715   C243.320190,311.212799 243.250626,312.073853 243.181046,312.934937   C245.971359,313.899200 248.745438,314.913879 251.554993,315.818420   C260.756775,318.780945 262.527374,322.045410 259.943909,330.538269  z"/>
<path fill="#252525" opacity="1.000000" stroke="none" d=" M270.656860,307.429199   C270.407196,309.061981 270.255859,310.323395 270.251404,310.360565   C274.475494,310.792084 278.788483,310.183289 281.963654,311.803833   C286.688812,314.215454 287.267242,319.458374 287.012634,324.510345   C286.903839,326.669128 287.566162,329.109955 286.754974,330.919006   C286.002960,332.596069 283.753967,333.601929 282.164154,334.903320   C281.116028,333.563293 279.427124,332.339447 279.158539,330.858063   C278.661407,328.116241 279.416687,325.134064 278.840240,322.424316   C278.432892,320.509521 276.690277,318.878784 275.543793,317.121216   C274.013702,318.562683 271.531433,319.786835 271.143036,321.488800   C270.207733,325.587158 270.252777,329.909210 269.871948,334.508942   C266.693573,335.453583 263.979462,335.475525 264.009521,330.579681   C264.058197,322.654266 263.868408,314.722229 264.169281,306.807800   C264.230072,305.208466 265.802399,302.578125 267.062683,302.322784   C270.457214,301.635071 271.197876,304.134460 270.656860,307.429199  z"/>
<path fill="#F9645B" opacity="1.000000" stroke="none" d=" M234.976624,322.215271   C234.013596,330.685150 229.294128,335.479431 221.870346,335.944153   C215.455109,336.345734 210.115189,331.800842 208.312851,324.405121   C206.719254,317.865936 212.096146,311.033783 218.819946,311.054291   C229.481903,311.086823 231.430740,312.384369 234.976624,322.215271  M223.184326,317.050476   C222.189224,317.029816 220.697021,316.584045 220.286835,317.063660   C218.687134,318.934174 216.747986,320.961639 216.300446,323.203308   C216.030014,324.557953 217.944153,327.112823 219.483597,327.835388   C220.841278,328.472656 223.852539,327.943573 224.712997,326.830902   C227.065186,323.789276 226.987045,320.335785 223.184326,317.050476  z"/>
<path fill="#252525" opacity="1.000000" stroke="none" d=" M303.885223,334.970825   C297.175446,336.118896 292.719757,334.201477 289.799347,328.055695   C286.797241,321.738068 291.083008,312.228943 298.083893,310.674500   C303.586151,309.452850 308.479828,310.692719 312.028076,314.859955   C316.046265,319.579041 315.380066,325.393280 312.511597,330.175934   C311.083313,332.557220 307.111755,333.413147 303.885223,334.970825  M296.184021,324.129364   C297.325012,325.448486 298.228424,327.181854 299.656250,328.000824   C302.665009,329.726532 307.658997,326.861328 306.612976,324.029449   C305.653107,321.430847 303.419678,317.997040 301.176117,317.497620   C298.143463,316.822540 296.107422,319.873627 296.184021,324.129364  z"/>
<path fill="#6943BA" opacity="1.000000" stroke="none" d=" M148.739441,209.911240   C155.213120,206.319214 160.622299,210.598892 164.934982,212.982086   C170.859146,216.255814 176.399094,218.245621 183.024109,218.064636   C185.211548,218.004898 187.422791,218.815918 189.837219,219.542572   C178.404129,219.917053 166.756256,220.078018 155.110107,219.995560   C149.409241,219.955215 147.466415,216.889725 148.739441,209.911240  z"/>
<path fill="#F9645B" opacity="1.000000" stroke="none" d=" M160.948090,193.867584   C158.467575,198.855972 155.607712,200.367050 152.113144,198.269333   C149.294586,196.577423 146.575317,193.586136 149.144470,190.438690   C150.663208,188.578125 154.434464,187.614609 157.001984,187.909409   C158.511826,188.082764 159.647919,191.511246 160.948090,193.867584  z"/>
<path fill="#6943BA" opacity="1.000000" stroke="none" d=" M157.679291,225.976990   C162.974319,228.201859 164.853561,231.167221 162.883835,234.269485   C160.974762,237.276215 157.938309,238.539597 154.463440,237.029892   C151.076279,235.558319 149.838608,231.545166 152.115646,228.405502   C153.091537,227.059967 155.508667,226.759720 157.679291,225.976990  z"/>
<path fill="#6943BA" opacity="1.000000" stroke="none" d=" M141.915268,211.873413   C140.668655,213.910217 139.853745,216.885773 138.051590,217.714478   C136.319427,218.511047 132.682114,217.867355 131.445175,216.471375   C128.928558,213.631271 129.476959,210.091904 132.851730,207.491562   C135.188171,211.210663 136.687454,215.389999 141.915268,211.873413  z"/>
<path fill="#D73997" opacity="1.000000" stroke="none" d=" M141.825745,211.538467   C136.687454,215.389999 135.188171,211.210663 133.213226,207.420929   C136.877380,206.537033 140.152267,207.078171 141.825745,211.538467  z"/>
<path fill="#6943BA" opacity="1.000000" stroke="none" d=" M191.011337,220.331284   C191.554932,220.207809 192.251053,220.368622 192.973022,220.798615   C192.387207,220.917038 191.775543,220.766296 191.011337,220.331284  z"/>
</svg>
