<svg xmlns="http://www.w3.org/2000/svg" viewBox="0 0 500 500"><g id="freepik--background-complete--inject-146"><rect x="74.27" y="406.37" width="35.16" height="11.19" style="fill:#ebebeb"></rect><path d="M89.82,431.67c-5.86.1-20.63.35-26.29.42l-8.87,0h-.45v-.46l0-11.19V420h.5l17.58.07c4.37,0,13.2.14,17.58.2h.24v.23l-.23,11.19Zm0,0-.24-11.19.24.24c-4.39.06-13.2.16-17.58.2L54.66,421l.5-.5,0,11.19-.46-.45,8.71,0c5.57.07,20.68.32,26.45.41Z" style="fill:#ebebeb"></path><path d="M222.56,118.2c-5.86.1-20.63.35-26.29.41l-8.87,0H187v-.46l0-11.19v-.5h.5l17.58.07c4.38,0,13.2.13,17.58.19h.24V107l-.24,11.19Zm0,0L222.32,107l.24.24c-4.39.06-13.2.15-17.58.19l-17.58.07.5-.5,0,11.19-.46-.45,8.71,0c5.57.06,20.68.31,26.45.41Z" style="fill:#ebebeb"></path><path d="M203,132.31c-5.86.1-20.63.35-26.29.41l-8.87.05h-.45v-.46l0-11.19v-.5h.5l17.58.07c4.37,0,13.2.13,17.58.19h.24v.23L203,132.31Zm0,0-.24-11.19.24.24-8.79.11c-5.58.08-20.6.13-26.37.15l.5-.5,0,11.19-.45-.45,8.71,0c5.57.06,20.68.31,26.45.41Z" style="fill:#ebebeb"></path><rect x="148.25" y="107.01" width="35.16" height="11.19" style="fill:#ebebeb"></rect><rect x="410.18" y="420.48" width="35.16" height="11.19" style="fill:#ebebeb"></rect><rect x="390.57" y="44.93" width="35.16" height="11.19" style="fill:#ebebeb"></rect><path d="M445.34,70.23c-5.86.1-20.63.35-26.29.42l-8.87,0h-.45v-.46L409.68,59v-.5h.5l17.58.07c4.38,0,13.2.13,17.58.2h.24V59l-.24,11.19Zm0,0L445.1,59l.24.24c-4.39.06-13.19.16-17.58.19l-17.58.07.5-.5,0,11.19-.46-.45,8.71,0c5.58.06,20.69.32,26.45.41Z" style="fill:#ebebeb"></path><path d="M109.43,56.12c-5.86.1-20.63.35-26.29.42l-8.87,0h-.45v-.46l0-11.19v-.5h.5l17.58.07c4.38,0,13.2.13,17.58.2h.24v.23l-.24,11.19Zm0,0-.24-11.19.24.24c-4.39.06-13.2.16-17.58.19l-17.58.07.5-.5,0,11.19-.46-.45,8.71,0c5.57.06,20.68.32,26.45.41Z" style="fill:#ebebeb"></path></g><g id="freepik--Sparkles--inject-146"><polygon points="233.99 65.58 226.56 66.96 224.9 74.79 223.24 66.96 215.81 65.58 223.21 63.77 224.9 56.38 226.59 63.77 233.99 65.58" style="fill:#7C3BED"></polygon><polygon points="130.85 103.44 126.7 104.21 125.77 108.59 124.84 104.21 120.69 103.44 124.83 102.43 125.77 98.3 126.72 102.43 130.85 103.44" style="fill:#7C3BED"></polygon><polygon points="331.8 105.07 327.65 105.84 326.72 110.22 325.8 105.84 321.64 105.07 325.78 104.06 326.72 99.93 327.67 104.06 331.8 105.07" style="fill:#7C3BED"></polygon><polygon points="391.48 147.5 387.33 148.26 386.4 152.64 385.48 148.26 381.32 147.49 385.46 146.48 386.4 142.35 387.35 146.48 391.48 147.5" style="fill:#7C3BED"></polygon><polygon points="305.83 183.57 301.68 184.34 300.75 188.71 299.82 184.34 295.67 183.57 299.8 182.56 300.75 178.42 301.69 182.56 305.83 183.57" style="fill:#7C3BED"></polygon><polygon points="168.9 173.05 164.75 173.82 163.82 178.2 162.9 173.82 158.75 173.05 162.88 172.04 163.82 167.91 164.77 172.04 168.9 173.05" style="fill:#7C3BED"></polygon><polygon points="97.42 210.49 93.27 211.26 92.34 215.63 91.42 211.26 87.26 210.49 91.4 209.48 92.34 205.34 93.29 209.48 97.42 210.49" style="fill:#7C3BED"></polygon><path d="M288.61,159.1a1.2,1.2,0,0,0,0,2.4A1.2,1.2,0,0,0,288.61,159.1Z" style="fill:#7C3BED"></path><path d="M177,142.41a1.21,1.21,0,0,0,0,2.41A1.21,1.21,0,0,0,177,142.41Z" style="fill:#7C3BED"></path><path d="M77.44,218.87a1.21,1.21,0,0,0,0,2.41A1.21,1.21,0,0,0,77.44,218.87Z" style="fill:#7C3BED"></path><path d="M157.2,151a.85.85,0,0,0,0,1.7A.85.85,0,0,0,157.2,151Z" style="fill:#7C3BED"></path><path d="M109.6,159.45a.85.85,0,0,0,0,1.7A.85.85,0,0,0,109.6,159.45Z" style="fill:#7C3BED"></path><path d="M211.16,74.79a.85.85,0,0,0,0,1.7A.85.85,0,0,0,211.16,74.79Z" style="fill:#7C3BED"></path><path d="M341.54,120.27a.85.85,0,0,0,0,1.7A.85.85,0,0,0,341.54,120.27Z" style="fill:#7C3BED"></path><path d="M421.5,198.7c-3,0-3,4.62,0,4.62S424.47,198.7,421.5,198.7Z" style="fill:#7C3BED"></path><path d="M272.31,77.94c-3,0-3,4.61,0,4.61S275.28,77.94,272.31,77.94Z" style="fill:#7C3BED"></path></g><g id="freepik--Character--inject-146"><polygon points="117.48 232.53 206.21 260.46 181.07 382.26 76.95 352.62 117.48 232.53" style="fill:#7C3BED"></polygon><polygon points="117.48 232.53 206.21 260.46 181.07 382.26 76.95 352.62 117.48 232.53" style="fill:#fff;opacity:0.6000000000000001"></polygon><polygon points="76.95 352.62 47.1 337.77 105.62 227.02 110.28 232.16 117.48 232.53 76.95 352.62" style="fill:#7C3BED"></polygon><polygon points="76.95 352.62 47.1 337.77 105.62 227.02 110.28 232.16 117.48 232.53 76.95 352.62" style="fill:#fff;opacity:0.4"></polygon><polygon points="65.75 332.79 47.1 337.77 105.62 227.02 110.28 232.16 65.75 332.79" style="fill:#7C3BED;opacity:0.5"></polygon><path d="M77.16,349.81c-1.62-2.9-3.39-5.7-5.17-8.49s-3.64-5.53-5.54-8.24l-.26-.38-.44.09c-2.73.53-5.46,1.06-8.17,1.71s-5.42,1.26-8.1,2c2.78-.25,5.54-.62,8.29-1s5.5-.86,8.24-1.35l-.7-.29q2.81,4.11,5.74,8.1C73,344.61,75,347.26,77.16,349.81Z" style="fill:#7C3BED"></path><path d="M65.73,333.74c4-8.35,7.84-16.76,11.66-25.19s7.52-16.89,11.29-25.34,7.37-17,11-25.48l5.37-12.8c1.74-4.28,3.53-8.55,5.22-12.85-2,4.16-3.93,8.37-5.9,12.56l-5.76,12.62c-3.82,8.42-7.53,16.89-11.29,25.34s-7.37,17-11,25.49S69.15,325.14,65.73,333.74Z" style="fill:#7C3BED"></path><polygon points="116.66 239.59 209.55 245.6 215.48 394.84 107.27 391.46 116.66 239.59" style="fill:#455a64"></polygon><polygon points="107.27 391.46 74.65 383.09 103.81 236.73 109.59 241.32 116.66 239.59 107.27 391.46" style="fill:#37474f"></polygon><polygon points="91.48 371.72 74.65 383.09 103.81 236.73 109.59 241.32 91.48 371.72" style="opacity:0.1"></polygon><path d="M106.77,388.11c-2.29-2.88-4.71-5.61-7.12-8.33s-4.91-5.34-7.42-7.93l-.35-.36-.4.23c-2.51,1.43-5,2.87-7.48,4.43s-4.94,3.08-7.35,4.78c2.63-1.13,5.21-2.38,7.78-3.68s5.11-2.65,7.64-4l-.75-.13q3.74,3.95,7.58,7.71C101.48,383.3,104.06,385.79,106.77,388.11Z" style="fill:#263238"></path><path d="M91.69,372.83c1.8-10.91,3.43-21.84,5-32.79s3.08-21.91,4.63-32.86,2.92-21.95,4.29-32.94l2-16.49c.62-5.51,1.29-11,1.87-16.52-.92,5.45-1.73,10.92-2.6,16.38L104.5,274c-1.61,10.94-3.09,21.91-4.63,32.86S97,328.83,95.58,339.82,92.87,361.8,91.69,372.83Z" style="fill:#263238"></path><path d="M207.59,113.74c8.3-8,30.36-17.54,51.47,2,30,27.7,19.31,103.57,15.14,115.13,0,0-51.54,18.45-97.7-7.57,0,0,24.57-51.37,20.27-77.57A35.68,35.68,0,0,1,207.59,113.74Z" style="fill:#263238"></path><path d="M192.34,174.27c-.16.42-.3.84-.46,1.26a93.2,93.2,0,0,1-7.63,15.33,56.6,56.6,0,0,1-10.18,12.79c-.11.1-.29-.05-.18-.15,4.11-3.87,6.92-8.8,9.5-13.71a135.28,135.28,0,0,0,6.7-14.84A129.79,129.79,0,0,0,198,142.89c0-.21.4-.19.39,0-.05,1.54-.14,3.07-.26,4.6a.19.19,0,0,1,.26.2c-.92,10.26-2.13,20.32-5.16,30.19a110.42,110.42,0,0,1-13.06,27.41A138,138,0,0,1,170,219.16a.07.07,0,1,1-.1-.09C180.19,205.66,187.35,190.26,192.34,174.27Z" style="fill:#263238"></path><path d="M249.64,111.45c26.55,15.8,34.58,47.4,34.76,75.55a131.73,131.73,0,0,1-2.14,25.85.12.12,0,0,1-.24,0,155.37,155.37,0,0,0-1.33-44.74c-2.51-13.83-6.49-28.12-14.58-40a53.9,53.9,0,0,0-16.65-16.21C249.21,111.7,249.39,111.3,249.64,111.45Z" style="fill:#263238"></path><path d="M258.13,214.82c41,37.16,70.18,69.17,69.8,83.73-.87,32.61-18.07,39.65-21.13,38.62-32.35-11-52.91-72.56-66.51-109.77C226.79,190.47,246.38,204.18,258.13,214.82Z" style="fill:#f7a9a0"></path><path d="M279.8,322.31l53.12-39.64s-51.18-52.85-77.79-72.54c-22.35-16.55-33.58-4.87-19.58,27.88C248.8,269,279.8,322.31,279.8,322.31Z" style="fill:#7C3BED"></path><path d="M303.49,253.28h0l-5-4.82c-2.09,1.16-3.27,3.5-3.82,6.21a26.12,26.12,0,0,0-1.16,11.67c.3,2.15,1.22,5.29,4,4.77,3-.55,4.31-5.26,5-7.65A37.63,37.63,0,0,0,303.49,253.28ZM283.55,269c-1.24-2.57-3.6-5.17-6.4-2.87-3,2.49-2.72,7.63-2.11,11.06a24.74,24.74,0,0,0,2.72,8,7,7,0,0,0,3.06,3.3c3.74,1.57,4.05-3.39,4.34-5.87C285.69,278.09,285.55,273.28,283.55,269Zm7.21-27.94-3.86-3.62c-1.72.23-2.76,1.82-3.32,3.81a21.76,21.76,0,0,0-1,8.39c.19,1.71.54,4.67,2.46,5.43s3.46-1.23,4.13-2.77C290,250.47,291.41,244.86,290.76,241.09ZM261.67,240c-.45-5.06-3.47-9.42-6.76-13.11-2.22-2.52-6.22-7.59-10.07-4.76-3,2.19-1.72,6.51-.58,9.32a25.5,25.5,0,0,0,9,11.15c1.68,1.13,4.21,2.52,6,1.87C261.08,244.18,261.88,242.39,261.67,240Zm37.65,52.63c-1-3.34-4.32-8.93-6.9-8.43-2.11.43-3.81,5.23-2,11.35,1.95,6.62,5.61,9.43,7.32,8.67C301.15,302.75,300.57,297,299.32,292.67Z" style="fill:#263238"></path><path d="M317.51,277.08a106.2,106.2,0,0,0-10.67,7c-3.63,2.47-7.14,5.07-10.67,7.65s-17.18,13.39-20.59,16.1c-.15.12.08.37.24.26,3.64-2.46,18-12.25,21.47-14.79s6.92-5.07,10.28-7.72,7.05-5.24,10.07-8.29C317.7,277.18,317.61,277,317.51,277.08Z" style="fill:#263238"></path><path d="M310.49,299.41l-30.69,22.9s-31-53.3-44.25-84.3c-9.09-21.26-7.54-33.63.77-35.18C249.62,220,284.79,265.48,310.49,299.41Z" style="opacity:0.1"></path><path d="M241.18,204.59a46,46,0,0,1,16.48,21.55c5.28,14.42,33.15,82.48,37.91,97.33s41.89,87.14,41.89,87.14-20.39,21.94-26.34,26.44c-8.27,6.28-38.22,16.27-38.22,16.27S260.36,345.39,258,334.43,241.18,204.59,241.18,204.59Z" style="fill:#7C3BED"></path><path d="M308,372c-1.46,4.57-4.71,8.26-8.3,11.3-1.94,1.65-5.62,5.13-7.32,1.36a7.12,7.12,0,0,1,0-4.59,25.14,25.14,0,0,1,3.55-7.87c1.93-3,5.28-7,9.27-6.8C308.9,365.67,308.85,369.25,308,372Z" style="fill:#263238"></path><path d="M285.51,393.53c-.12,5-.9,10.4-4.09,14.49-1.48,1.91-3.33,2.68-4.93,1.64-1.79-.76-2.71-3.55-3.16-5.57a25.75,25.75,0,0,1,1.05-14.56c1.1-2.9,3.16-7,6.92-6.56C286.14,383.54,285.6,390.11,285.51,393.53Z" style="fill:#263238"></path><path d="M304,389.57c2.27,1.41.87,7.9-.72,11.08-2,4.07-5.65,8.81-9.24,7.56-1.82-.64-2.59-5.27.56-11.57C297.54,390.81,302.15,388.41,304,389.57Z" style="fill:#263238"></path><path d="M318.32,422.91c-.63,1.69-2.08,4.71-4.17,5s-2.63-1.75-2.78-3.28a22.66,22.66,0,0,1,.56-7.17c.62-3.17,2.14-6,5.07-6.52C322.79,410,319.15,420.73,318.32,422.91Z" style="fill:#263238"></path><path d="M316.33,462.07h-94.1c-4.09-16.06-10.39-40.78-15.87-62.32a0,0,0,0,0,0,0c-.33-1.32-.67-2.64-1-3.92-.21-.81-.4-1.6-.6-2.38-5.28-20.7-9.44-37.07-9.54-37.45l-.15-.55c-.05-.2-.07-.31-.07-.31h90.85Z" style="fill:#37474f"></path><path d="M282.9,355.06v0c0,.06,0,.17,0,.31,0,1.07,0,2.14,0,3.21,0,2.72-.16,5.44-.34,8.16a252.91,252.91,0,0,1-4.16,31.68,336.25,336.25,0,0,1-10.54,40.77c-.39,1.16-.62,1.81-.64,1.88l-7.25,3.58-.59.3L245,452.11c-2,1-3.47,1.73-3.88,1.95l-.11.06s-.16,3.23-.36,7.95H142.51c2-16.64,2.23-18.84,2.23-18.84-.58-3.21-3.15-11.48-2.23-21.1,2-21.13,15-63.56,16.16-66.09.27-.62.44-.94.44-.94h24.82l58.8,0H282.9Z" style="fill:#37474f"></path><path d="M241.11,453.84v.22c0,2.67-.07,5.35-.11,8h-1c.22-2.68.4-5.37.72-8.05,0-.24,0-.48.07-.72a.15.15,0,0,1,.3,0C241.1,453.49,241.11,453.67,241.11,453.84Z" style="fill:#263238"></path><path d="M229.35,459c4.17-2.89,8.67-5.32,13.09-7.82s9.1-5,13.8-7.19c9.19-4.27,18.88-7.36,28.54-10.36a.23.23,0,0,1,.17.43c-9.3,4-18.33,8.58-27.58,12.68-4.66,2.07-9.35,4-14,6.1s-9.2,4.38-13.9,6.34C229.32,459.22,229.23,459.07,229.35,459Z" style="fill:#263238"></path><path d="M254.81,413.44c.12-4.57.44-9.13.66-13.69.54-10.76,1-21.59,2-32.32a.34.34,0,0,1,.67,0c.14,8.33-.18,16.68-.35,25-.09,4.17-.21,8.33-.32,12.5a116,116,0,0,0-.08,11.94c.22,3,.88,8.84,4.8,9.2,3.69.34,5.71-3.64,6.63-6.57,2.34-7.41,3.17-15.41,3.93-23.12.45-4.57.9-9.12,1.17-13.7s.64-11.44.39-16.06c0-.29.41-.28.46,0,.73,4,.76,12,.66,16.73-.9,42.47-7.6,44.89-11.14,45.58a7.6,7.6,0,0,1-1.32.14c0,1-.17,1.94-.24,2.89-.1,1.51-.29,3-.49,4.51a36.34,36.34,0,0,1-.92,4.36,16.2,16.2,0,0,1-1.54,4.17.23.23,0,0,1-.42-.13,20.09,20.09,0,0,1,.36-4.3c.2-1.46.4-3,.7-4.39s.56-2.86.86-4.28c.19-1,.33-1.94.51-2.91a7,7,0,0,1-5.23-4.12C254.85,421.39,254.72,417.25,254.81,413.44Z" style="fill:#263238"></path><path d="M169,405.37c5.93.42,11.78,1.18,17.73.48a30.85,30.85,0,0,0,15.43-6.06c9.78-7.58,14.07-20,16.71-31.63a.21.21,0,0,1,.42.06c-1.11,10.1-3.28,20.54-9.8,28.66a31.35,31.35,0,0,1-10.4,8.57,30.51,30.51,0,0,1-13.74,2.83,66.26,66.26,0,0,1-16.45-2.22A.35.35,0,0,1,169,405.37Z" style="fill:#263238"></path><path d="M298.43,403c-1.65-.19-3.27,0-4.95-1.26s-3.1-3.41-4.41-7c-2.85-7.87-4.25-19.63-5.18-30.52,0-.24-.13-.24-.12,0,.48,9.34,1.26,19.09,3.21,27.14a40.61,40.61,0,0,0,3,8.83c1.22,2.34,2.58,3.46,3.89,3.9a5.68,5.68,0,0,0,4.55-.45C298.58,403.6,298.55,403,298.43,403Z" style="fill:#263238"></path><path d="M168,358c-3.19,17.45-7,35.15-10.45,52.55-.89,5.21-2.44,10.35-2.13,15.64a109.65,109.65,0,0,0,2.52,15.87c-.56,3.36-1.1,6.72-1.71,10.07s-1.15,6.64-1.79,9.95c.31-3.36.69-6.7,1-10.05s.75-6.7,1.14-10a87.62,87.62,0,0,1-3-15.67,23.26,23.26,0,0,1,.13-5.53c1.06-7.14,2.55-14.11,4-21.11,3-14,6.4-27.88,10.19-41.67Z" style="fill:#263238"></path><path d="M148.38,391.88c.4.49,145.79.32,147.52-1.47.3-.31,8.52-16.25,8.23-22.07-.45-9.14-7.26-20.08-6.9-26.33.61-10.46-40.26-113.37-46.41-128.45s-34-18.38-48.29-6.47c-20.88,17.4-53.15,148.57-55.92,157.16C143.28,374.54,148,391.42,148.38,391.88Z" style="fill:#ebebeb"></path><path d="M233.42,351.21c-.46-1.47,26.34-6.69,29.24-7.12s28.46-.23,28.73.29-23.47,1.74-25.39,1.7S233.64,351.93,233.42,351.21Z" style="fill:#c7c7c7"></path><path d="M261,349.38c-1.19-.74,15.24-.72,15.19-.17S262.84,350.52,261,349.38Z" style="fill:#c7c7c7"></path><path d="M212.62,200.4s.59,107.71-.64,117.16-22.67,139.09-22.67,139.09-46-9.33-52.24-13.76-17.17-30-17.17-30,27.29-66,29.77-72.91c3.54-9.8,36.57-112.53,45-126.4A29.78,29.78,0,0,1,212.62,200.4Z" style="fill:#7C3BED"></path><path d="M166.21,363.78c-2.47,1-3.8,3.53-4.4,6.49a26.12,26.12,0,0,0-1.16,11.67c.3,2.14,1.22,5.28,4,4.76,3-.55,4.31-5.25,5-7.64S172.66,361.08,166.21,363.78Zm-15.53,20.86c-1.24-2.57-3.6-5.17-6.4-2.87-3,2.49-2.72,7.62-2.11,11.06a24.61,24.61,0,0,0,2.72,8,7.06,7.06,0,0,0,3.06,3.31c3.74,1.56,4.05-3.4,4.34-5.87C152.82,393.69,152.68,388.88,150.68,384.64Zm4.3-31.55c-2.3-.31-3.61,1.46-4.27,3.8a21.72,21.72,0,0,0-1,8.39c.19,1.71.54,4.66,2.46,5.43s3.45-1.24,4.13-2.77C157.59,365.12,160.08,353.76,155,353.09Zm.71,75.1c-.45-5.07-3.46-9.43-6.75-13.12-2.22-2.51-6.23-7.59-10.07-4.75-3,2.19-1.72,6.51-.58,9.31a25.36,25.36,0,0,0,9,11.15c1.68,1.14,4.2,2.52,6,1.87C155.1,432.32,155.91,430.53,155.69,428.19Zm10.75-19.92c-1-3.33-4.32-8.92-6.89-8.42-2.11.42-3.81,5.22-2,11.35,1.95,6.62,5.61,9.43,7.32,8.67C168.28,418.36,167.7,412.56,166.44,408.27Zm21.09,1.14c-1.77,2.3-1,5.37.72,8.06a22.23,22.23,0,0,0,4.39,5.51,5.39,5.39,0,0,0,2,1.18l1.34-8.1C194.56,412.84,190.64,405.37,187.53,409.41ZM210.9,221.77c-1.48-1.63-3.94.1-5.21,1.09-3.45,2.73-6.64,7.06-7.49,11.61-1.12,2.77-1.37,5.5,1.22,6.07,2.14.47,4.71-2.45,6-3.77a23.52,23.52,0,0,0,5.17-7.91C211.24,227.07,212.41,223.43,210.9,221.77Zm-5.31,53.59c-1.47,1.56-3.34,4.27-1.18,6.11s5.83.42,8.29-.56c0-3.51,0-7.15,0-10.84A26.63,26.63,0,0,0,205.59,275.36Zm-10.16-12.84c-3.84-.78-7.64,2.68-9.93,5.33A24.58,24.58,0,0,0,181,275a7,7,0,0,0-.66,4.46c1.14,3.89,5.18,1,7.29-.33,3.9-2.46,7.55-5.6,9.6-9.82C198.44,266.72,199,263.26,195.43,262.52Zm16.26-6.12c-1.21,1.23-3.3,3.37-2.67,5.33.49,1.62,2.24,1.86,3.73,1.67,0-2.65,0-5.31,0-8C212.33,255.8,212,256.12,211.69,256.4Zm-40.81,20.29C167.93,285.35,165,294,162.34,302c1.29.49,2.81-.09,4.18-1.42,3.67-3.54,5.15-8.63,6-13.5C173,284.07,174.22,278.53,170.88,276.69Zm20.1,9.09c-1.66-1.38-6.45.31-10.08,5.58-3.92,5.67-3.8,10.28-2.13,11.14,3.31,1.7,7.46-2.4,10-6.07C190.75,293.57,193,287.46,191,285.78Zm10.16,27.76c-2.9.07-4.77,2.63-5.81,5.62a22.5,22.5,0,0,0-1.52,6.89c-.06,1.51.3,3.59,2.26,3.56s3.88-2.78,4.73-4.33C201.89,323.28,206.9,313.39,201.14,313.54Z" style="fill:#263238"></path><path d="M181.48,225.16c-37.68,40.54-64,74.94-62.36,89.41,3.67,32.42,21.41,38,24.37,36.66,31.29-13.71,53.15-81.37,63.51-119.6C217.28,193.67,192.27,213.55,181.48,225.16Z" style="fill:#f7a9a0"></path><path d="M117.2,290l56.09,35.3s29.85-64.59,35.6-98.47c4.66-27.42-3.43-33.28-28.95-8.44C155.78,241.86,117.2,290,117.2,290Z" style="fill:#7C3BED"></path><path d="M141.12,261.08c-3,3.5-5.81,6.86-8.4,10a18.17,18.17,0,0,0,1.77,4.06,7,7,0,0,0,3,3.31c3.74,1.56,4.05-3.39,4.34-5.87A27.45,27.45,0,0,0,141.12,261.08Zm16.27-18.77q-2,2.28-4,4.59c-1.3,1.48-2.6,3-3.88,4.44l-.13.15c.2,1.74.64,4.31,2.4,5,1.93.8,3.46-1.23,4.13-2.77C156.72,251.84,158.12,246.08,157.39,242.31Zm12,34c-3.57-1-6.15,2.74-7.62,5.38a25.38,25.38,0,0,0-3.06,14c.16,2,.66,4.85,2.29,5.84,1.42,1.23,3.31.74,5-.9,3.66-3.53,5.17-8.61,6-13.48C172.57,283.8,174,277.5,169.39,276.28Zm35.84-53.42c-3.45,2.73-6.64,7.06-7.49,11.61-1.12,2.77-1.37,5.5,1.22,6.07,2.14.47,4.71-2.45,6-3.77a26,26,0,0,0,2.55-3.07c.56-2.42,1-4.73,1.4-6.91q.49-2.94.8-5.54C208.23,220.65,206.3,222,205.23,222.86ZM195,262.52c-3.84-.78-7.64,2.68-9.93,5.33a24.58,24.58,0,0,0-4.5,7.15,7,7,0,0,0-.66,4.46c1.14,3.89,5.18,1,7.29-.33a26.94,26.94,0,0,0,8.55-8c.67-1.79,1.32-3.59,2-5.39h0A3.06,3.06,0,0,0,195,262.52Zm-14.53,28.84c-3.92,5.67-3.8,10.28-2.13,11.14s3.63.21,5.45-1.15c2-4.84,4.22-10.18,6.44-15.78C188.31,284.61,183.86,286.4,180.44,291.36Z" style="fill:#263238"></path><path d="M173,308.88a106.57,106.57,0,0,0-10.34-7.46c-3.61-2.49-7.29-4.83-11-7.2S133,283,129.23,280.8c-.17-.1-.32.21-.16.32,3.61,2.5,17.91,12.41,21.53,14.71s7.22,4.64,10.89,6.82,7.44,4.69,11.37,6.41C172.94,309.09,173.06,309,173,308.88Z" style="fill:#263238"></path><path d="M167.1,321.2c2.43,1.35,4.82,2.74,7.22,4.13l-.51.17c7-19.78,14.61-39.32,22.33-58.82,2.56-6.5,5.21-13,7.72-19.5-5.7,20.21-13.45,39.77-21.23,59.25-2.69,6.61-5.44,13.19-8.35,19.71-2.4-1.63-4.81-3.26-7.18-4.94Z" style="fill:#263238"></path><path d="M204.6,252.26a19.71,19.71,0,0,1-6.3,10.54c2.11-3.49,4.07-7.12,6.3-10.54Z" style="fill:#263238"></path><path d="M304.3,334.61c-7.47-14.14-12.39-45.72,5.2-106.63,2.44-8.43,64.37,4.68,62.24,13.81-2.7,11.51-15.63,55.58-17,58.68C343.34,326.65,309.37,344.2,304.3,334.61Z" style="fill:#f7a9a0"></path><path d="M299.32,323a69.5,69.5,0,0,1-3.18-14.13c-.28-2.4-.52-4.81-.62-7.23a59.09,59.09,0,0,1,.16-7.3,144.38,144.38,0,0,1,1.77-14.38,111.07,111.07,0,0,1,3.29-14.08c-.84,4.74-1.45,9.5-2,14.26s-1,9.54-1.33,14.31c-.13,2.38-.25,4.77-.16,7.12s.2,4.77.39,7.15C298,313.44,298.48,318.2,299.32,323Z" style="fill:#263238"></path><path d="M337.64,258c-7.48.08-28.26-22.31-28.14-30,.33-20.95,17.25-42.91,18.92-57.92,1.43-12.61,2.1-31.49,8.91-31,9.93.72,11.95,24.7,12.27,38.53,6.47-3.84,12.39-6.54,16.43-6.85,13.38-1,25.54,58.15,15.56,67.47C372,247.22,345.11,257.88,337.64,258Z" style="fill:#f7a9a0"></path><path d="M398.65,253.8c-9-33-24.64-85.84-28.93-90.06-3.54,4.7-12.33,56.54-17.15,88.87l-2-.3c0-.22,3.34-22.34,7.18-44.36,7.88-45.13,10.29-45.92,11.45-46.3a1.48,1.48,0,0,1,1.2.13c5.75,3.09,26.13,76.76,30.16,91.5Z" style="fill:#263238"></path><path d="M344.61,251.7l-1.94-.47c.05-.21,5.34-22.08,11.15-43.86,11.89-44.57,14.26-45.35,15.4-45.72a1.5,1.5,0,0,1,1.23.15c5.45,3.18,20.11,74.88,23,89.22l-2,.4c-6.45-32.09-17.93-83.5-21.82-87.7C365.94,167.78,352.4,219.47,344.61,251.7Z" style="fill:#263238"></path><polygon points="328.1 238.58 430.47 238.2 445.42 411.41 326.85 417.39 328.1 238.58" style="fill:#7C3BED"></polygon><polygon points="326.85 417.39 290.69 410.59 313.87 236.41 320.48 241.26 328.1 238.58 326.85 417.39" style="fill:#7C3BED"></polygon><polygon points="326.85 417.39 290.69 410.59 313.87 236.41 320.48 241.26 328.1 238.58 326.85 417.39" style="opacity:0.2"></polygon><polygon points="308.42 395.72 290.69 410.59 313.87 236.41 320.48 241.26 308.42 395.72" style="opacity:0.1"></polygon><g style="opacity:0.1"><path d="M326.11,413.52c-2.68-3.17-5.48-6.14-8.28-9.11s-5.68-5.81-8.59-8.61l-.4-.39-.42.31c-2.67,1.91-5.33,3.82-7.93,5.88s-5.22,4.06-7.75,6.27c2.81-1.57,5.56-3.27,8.29-5s5.43-3.57,8.12-5.43l-.83-.08q4.32,4.28,8.75,8.35C320,408.36,323,411,326.11,413.52Z"></path><path d="M308.71,397c1.32-12.95,2.45-25.91,3.56-38.89s2.07-25.95,3.12-38.93,1.89-26,2.73-39l1.23-19.51c.35-6.51.76-13,1.06-19.53-.68,6.47-1.24,13-1.87,19.43L316.85,280c-1.11,13-2.08,25.95-3.12,38.93s-1.89,26-2.73,39S309.35,384,308.71,397Z"></path></g><path d="M356.48,251.66l-2-.24c0-.23,2.73-22.48,6-44.52,6.72-45.31,9.08-45.6,10.5-45.77s3.83-.48,18.4,43.89c7.07,21.56,13.64,43.46,13.71,43.68l-1.92.58c-9.45-31.56-25.7-82-30-86C367.75,167.9,360.39,219.5,356.48,251.66Z" style="fill:#263238"></path><path d="M349.6,250.52l-2-.4c0-.22,4.47-22.16,9.44-43.9,10.2-44.64,12.62-44.93,13.92-45.09,1.57-.19,3.93-.47,13.58,43.49,4.68,21.31,8.83,43,8.87,43.19l-2,.37c-5.91-31-16.5-80.6-20.3-84.9C367.38,167.72,356,218.69,349.6,250.52Z" style="fill:#263238"></path><polygon points="334.83 241.98 419.67 242.01 452.9 376.07 348.57 381.19 334.83 241.98" style="fill:#455a64"></polygon><polygon points="334.83 241.98 324.75 248.16 315.15 246.43 315.1 392.43 348.57 381.19 334.83 241.98" style="fill:#37474f"></polygon><polygon points="324.75 248.16 315.15 246.43 315.1 392.43 331.23 370.7 324.75 248.16" style="opacity:0.1"></polygon><polygon points="452.9 376.07 348.57 381.19 315.1 392.43 417.63 387.19 452.9 376.07" style="fill:#263238"></polygon><path d="M347.3,380.33c-2.28-1.51-13.81-9.38-16.2-10.63l-.33-.17-.26.25c-1.64,1.6-12.06,17.19-13.57,19,1.79-1.41,12.63-16.46,14.29-18l-.59.09C333,372.07,344.81,379.31,347.3,380.33Z" style="fill:#263238"></path><path d="M330.54,370.57c-.18-10.19-.53-20.37-.9-30.55s-.87-20.36-1.3-30.54-1-20.35-1.64-30.53l-.95-15.25c-.37-5.09-.69-10.17-1.11-15.25.08,5.09.25,10.19.37,15.28l.53,15.27c.37,10.18.86,20.36,1.3,30.54s1,20.35,1.65,30.52S329.73,360.41,330.54,370.57Z" style="fill:#263238"></path><path d="M345.73,176.46c-1.91,6.71,7.09,5.11,7.09,5.11s-12.4,5.42-11.68,13.1c.71,7.4,11.51,5.08,12.29,4.93-.66.29-11.92,5.57-10.41,13.21,1.58,7.95,12,3.76,12.7,3.48-.53.47-7.43,6.81-5,12.35,4.25,9.53,22.35-6.18,30.74-5.23,0,0,0,14.4.1,14.82,0,0,17.53-14.59,18.18-26a7.28,7.28,0,0,0-5.19-7.51s6.17-4.08,5.17-10.14c-.52-3.1-6-5-6-5s4.81-3.47,3.58-8.8c-1-4.26-6.26-5.53-6.26-5.53s3.06-5.48.66-9.5C387,157.6,349.81,162.09,345.73,176.46Z" style="fill:#f7a9a0"></path><path d="M390.31,174.91a.1.1,0,0,0,0-.2c-12.58-1.5-26.86.7-38,6.89-.37.21-.2.89.25.74C365.28,178.15,376.88,175.44,390.31,174.91Z" style="fill:#263238"></path><path d="M394,189.47c.14,0,.14-.24,0-.26-13-1.48-29,1.44-41,10.09-.41.3-.48,1,0,.67C361.41,194.82,381.89,189.89,394,189.47Z" style="fill:#263238"></path><path d="M355.09,217.19c11.83-7.86,25-11.13,39-12.55.18,0,.13-.27,0-.3-7-1.17-15.86.67-22.6,2.67a37.47,37.47,0,0,0-16.62,9.76C354.64,217,354.84,217.35,355.09,217.19Z" style="fill:#263238"></path><path d="M352.61,181.47c-.44.24.4.61,0,.87-1.81,1.09-12.15,8.56-10.69,12.87,1.17,3.45,6.62,4.27,8.84,3.76l5.57-1.27-4.79,3.14a23.12,23.12,0,0,0-5.64,5.07c-1.52,2-2.53,4.31-2.09,6.52a4.8,4.8,0,0,0,4.33,4.18,14.38,14.38,0,0,0,7.12-1.34l6.23-2.67-5,4.54a22.23,22.23,0,0,0-3.64,4.27,9.07,9.07,0,0,0-1.67,5,4.31,4.31,0,0,0,2.44,3.83,9.46,9.46,0,0,0,5.32.09c3.77-.78,7.42-2.38,11.12-3.79,1.85-.72,3.71-1.45,5.6-2.08a14.06,14.06,0,0,1,5.86-1,15.23,15.23,0,0,0-5.67,1.52c-1.82.77-3.6,1.63-5.39,2.49a63.62,63.62,0,0,1-11.15,4.47,11.2,11.2,0,0,1-6.4.09,6.12,6.12,0,0,1-3.81-5.52,11.09,11.09,0,0,1,1.91-6.2,24.09,24.09,0,0,1,4-4.81l1.24,1.87a16.61,16.61,0,0,1-8.4,1.66,7,7,0,0,1-4.25-2,7.85,7.85,0,0,1-2-4.17c-.54-3.14.91-6.09,2.65-8.25a25.47,25.47,0,0,1,6.28-5.48l.78,1.86c-2.84.55-9,.3-11.52-4.83C337.46,189,350.19,182.48,352.61,181.47Z" style="fill:#263238"></path><path d="M352.82,181.57a14.16,14.16,0,0,1-4.22-.73,3.23,3.23,0,0,1-2.21-2.43,6.59,6.59,0,0,1,.81-3.65c.62-1.26,1.34-2.56,2.13-3.87A11.12,11.12,0,0,0,345.9,174a6.48,6.48,0,0,0-1.43,4.78,4.66,4.66,0,0,0,1.35,2.43,4.82,4.82,0,0,0,2.38,1.11A7.53,7.53,0,0,0,352.82,181.57Z" style="fill:#263238"></path><path d="M245,231.67c-9.5,2-25.27-12.92-31.33-24.78-.41-.82,1.06-9.22,2.36-19.52.77-6.25,1.48-13.23,1.66-19.65,0-1.32,40,10.93,40,10.93S253.29,192,253,203.18a15,15,0,0,0,.2,2.64,2.55,2.55,0,0,1,.05.43C254,211.28,254.16,229.77,245,231.67Z" style="fill:#f7a9a0"></path><path d="M220.14,168c1.55,10.9,7.55,37.3,29,38.4a24,24,0,0,0,4.12-.1,1.47,1.47,0,0,0,0-.44,17,17,0,0,1-.21-2.64c.26-11.2,4.61-24.54,4.61-24.54S228.83,169.81,220.14,168Z" style="fill:#263238"></path><path d="M212.61,122.87c-4.32,14.29,3.31,55.5,13.48,64.67,14.75,13.3,38.85,14.52,50.14-3.2,10.93-17.17,0-70.71-11.32-79C248.18,93,219,101.77,212.61,122.87Z" style="fill:#f7a9a0"></path><path d="M212.61,122.87c-4.32,14.29,3.31,55.5,13.48,64.67,14.75,13.3,38.85,14.52,50.14-3.2,10.93-17.17,0-70.71-11.32-79C248.18,93,219,101.77,212.61,122.87Z" style="fill:#f7a9a0"></path><path d="M247.06,149.2c0-.1-.2.17-.18.28.47,2.79.54,6.06-1.87,7.33-.07,0,0,.18.05.15C248.09,156.11,248,151.77,247.06,149.2Z" style="fill:#263238"></path><path d="M244.17,146.62c-4.55.27-3.67,9.35.54,9.1S248,146.4,244.17,146.62Z" style="fill:#263238"></path><path d="M264,147.4c0-.11.23.12.23.23.07,2.83.62,6.05,3.23,6.84.08,0,.08.17,0,.16C264.31,154.37,263.61,150.08,264,147.4Z" style="fill:#263238"></path><path d="M266.36,144.31c4.51-.6,5.37,8.48,1.19,9S262.57,144.81,266.36,144.31Z" style="fill:#263238"></path><path d="M240.08,139.28a34.43,34.43,0,0,0,3.62-1c1.39-.38,2.53-.54,3.51-1.67a1.94,1.94,0,0,0-.12-2.35c-1.27-1.32-3.08-1.27-4.77-.88a7,7,0,0,0-4.27,2.7C236.93,137.55,238.42,139.56,240.08,139.28Z" style="fill:#263238"></path><path d="M270.52,137.43a35.59,35.59,0,0,1-3.72-.43c-1.42-.18-2.58-.17-3.71-1.16a1.93,1.93,0,0,1-.21-2.34c1.06-1.48,2.86-1.7,4.58-1.55a7,7,0,0,1,4.62,2.06A2.05,2.05,0,0,1,270.52,137.43Z" style="fill:#263238"></path><path d="M247.84,174.52c.73.6,1.49,1.45,2.51,1.44a7.45,7.45,0,0,0,3-1c.09,0,.19,0,.14.13A3.79,3.79,0,0,1,250,177a3,3,0,0,1-2.44-2.28C247.52,174.52,247.73,174.44,247.84,174.52Z" style="fill:#263238"></path><path d="M250,165.84a9.66,9.66,0,0,0,6.78,3.68,12.19,12.19,0,0,0,3.46-.16,3.4,3.4,0,0,0,.65-.13l.61-.15a.7.7,0,0,0,.5-.68v0a1.35,1.35,0,0,0,0-.29v0l0-.25c-.14-2.17-.65-5.44-.65-5.44.83.32,5,1.77,4.86.65-1.41-9.31-3-19.67-6.34-28.64a.26.26,0,0,0-.51.12c1,9,3.58,17.77,4.73,26.8-1.34-.37-3.52-1.09-4.65-1-.3.12,1.1,6.31,1.08,7.29a.24.24,0,0,1,0,.11c-3.59.79-6.44-.06-10.19-2.18C250.05,165.42,249.84,165.63,250,165.84Z" style="fill:#263238"></path><path d="M258.89,168.38a11.42,11.42,0,0,1-4.23,3.94,5.1,5.1,0,0,1-3.08.47c-2.3-.38-2.55-2.44-2.29-4.24a12.17,12.17,0,0,1,.76-2.79A14.76,14.76,0,0,0,258.89,168.38Z" style="fill:#263238"></path><path d="M254.66,172.32a5.1,5.1,0,0,1-3.08.47c-2.3-.38-2.55-2.44-2.29-4.24C251.72,168.58,254.25,170,254.66,172.32Z" style="fill:#ff97b8"></path><path d="M221.64,158.18c2.12-2.08,4.25-15.29,4.25-15.29S250.15,132,252,109.49c0,0,12.47,12.65,23,15.07,0,0-1.41-23.09-22.79-25.24,0,0-21.2-7.08-38,13.5s1,46.14,1,46.14Z" style="fill:#263238"></path><path d="M251.21,105.29c1.18,3.55.65,7.68-.19,11.27A39.34,39.34,0,0,1,246.79,127a35.28,35.28,0,0,1-7,9.07c-3.3,2.88-7.36,4.79-11.34,6.55-.12.06,0,.28.1.23,4.21-1.72,8.44-3.5,12.07-6.29a35.82,35.82,0,0,0,7.84-9A28.64,28.64,0,0,0,253,116.43c.63-3.94-.16-7.51-1.31-11.26C251.56,104.9,251.12,105,251.21,105.29Z" style="fill:#263238"></path><path d="M256,94.61c-4.38-2.81-14.85-8.37-24.08-8.7-9.41-.33-21.57,4.11-25.82,5.51-3.5,1.15-15.23,2.31-24.22,7.23-5.92,3.23-8.58,11.83-7.77,16.09,1.21,6.41,14.37,2.7,15,5.18.4,1.65-1.89,9.83,2.11,13.68s3.83,3.24,6.12,5.35c5.55,5.13,12.56-25.08,23.91-33.18S256,94.61,256,94.61Z" style="fill:#7C3BED"></path><path d="M255,95.07s-22.49,2.6-33.83,10.71-16.6,37.14-22.16,32c-2.45-2.27-3.34-5.19-3.74-9.93,2.66-8.3,8.21-21,16.77-29,8-7.51,20.15-10,32.61-9.45A70.7,70.7,0,0,1,255,95.07Z" style="opacity:0.1"></path><path d="M198.36,152.18c6.37-9.22,12.62-24,22.81-34.62s35.65-13.67,39-12.93c8.19,1.79,9.38,6,10.8,5.5s-5.34-11.24-7.44-13a27.15,27.15,0,0,0-11-4.69c-3.61-.49-26.12-1.82-35.68,6.34s-25.18,32.83-24.17,39.95c.24,1.7,2.24,3.1,2.56,5.51.42,3.18.5,6.78,1.07,9C196.82,155.11,198,152.75,198.36,152.18Z" style="fill:#7C3BED"></path><path d="M223.93,112.51a39.8,39.8,0,0,1-4.75-4.79,29,29,0,0,1-3.81-5.64.13.13,0,1,0-.24.09,22,22,0,0,0,3.3,6.17,18.72,18.72,0,0,0,5.25,4.54C223.91,113,224.11,112.67,223.93,112.51Z" style="fill:#263238"></path><path d="M199.13,147.6a17.62,17.62,0,0,0-.59-1.73,9.61,9.61,0,0,1-.42-2,18.21,18.21,0,0,0-.28-3.91,14.23,14.23,0,0,0-1.41-2.88,5.3,5.3,0,0,1-1-3.4c0-.16-.23-.21-.25,0-.39,2.35.93,4.28,1.64,6.42.46,1.37.2,2.8.42,4.2a6.15,6.15,0,0,0,1.54,3.58C198.89,147.92,199.18,147.81,199.13,147.6Z" style="fill:#263238"></path><path d="M203.15,139.63c-.59-1-1.26-1.92-1.76-3a23.74,23.74,0,0,1-1.2-3.17c-.34-1.06-.58-2.15-.89-3.22-.37-1.26-.89-2.49-1.2-3.77,0-.17-.28-.08-.24.09.31,1.32.4,2.71.67,4.05a26.92,26.92,0,0,0,1,3.4,17.49,17.49,0,0,0,1.39,3.09,8.36,8.36,0,0,0,2.15,2.61A.07.07,0,0,0,203.15,139.63Z" style="fill:#263238"></path><path d="M207.19,132.49a22.4,22.4,0,0,1-3.47-5.45c-.85-1.93-1.58-3.92-2.3-5.9,0-.14-.28-.09-.25,0a27.11,27.11,0,0,0,1.73,6.33,14.1,14.1,0,0,0,1.59,2.77,14.84,14.84,0,0,0,2.5,2.38C207.1,132.76,207.29,132.61,207.19,132.49Z" style="fill:#263238"></path><path d="M211.42,125.71a7.64,7.64,0,0,1-1.72-2.41q-.81-1.47-1.53-3c-.46-1-.94-1.92-1.4-2.89a7.62,7.62,0,0,1-.94-3.07.13.13,0,0,0-.26,0,8,8,0,0,0,.41,3.18,20.13,20.13,0,0,0,1.27,3.32A27.87,27.87,0,0,0,209,123.9a5.15,5.15,0,0,0,2.23,2.11C211.41,126.08,211.59,125.85,211.42,125.71Z" style="fill:#263238"></path><path d="M215.11,116.84c-.61-.82-1.21-1.64-1.75-2.51s-1-1.75-1.52-2.65-1-1.87-1.48-2.84a.13.13,0,0,0-.24.09,20.07,20.07,0,0,0,1,3,22.73,22.73,0,0,0,1.47,2.81,26.85,26.85,0,0,0,1.78,2.58,8.25,8.25,0,0,0,2.25,2.16c.13.07.32-.08.25-.22A15.08,15.08,0,0,0,215.11,116.84Z" style="fill:#263238"></path><path d="M230.58,109.05c-.61-1.08-1.21-2.13-1.92-3.14a31.89,31.89,0,0,0-2.36-3,33.23,33.23,0,0,0-5.38-5c-.11-.08-.29,0-.19.17,3.17,3.73,6.5,7.34,9.64,11.1A.13.13,0,1,0,230.58,109.05Z" style="fill:#263238"></path><path d="M236.34,103.15a16.71,16.71,0,0,0-2.23-2.92A34.9,34.9,0,0,0,228,95.47c-.14-.09-.3.08-.17.19,1.8,1.66,3.63,3.29,5.33,5.06a32.73,32.73,0,0,1,2.42,2.71c.74,1,1.25,2.06,1.95,3a.1.1,0,0,0,.18-.06A9.19,9.19,0,0,0,236.34,103.15Z" style="fill:#263238"></path><path d="M243.29,101.14a17.08,17.08,0,0,0-2-2.89A19.93,19.93,0,0,0,236.12,94c-.13-.08-.26.12-.15.21A39.3,39.3,0,0,1,240.71,99c.72.86,1.39,1.75,2.08,2.63a33.61,33.61,0,0,0,2,2.75c.06.06.16,0,.14-.1A18.76,18.76,0,0,0,243.29,101.14Z" style="fill:#263238"></path><path d="M248.58,98c-.7-.79-1.46-1.55-2.21-2.3a9.8,9.8,0,0,0-2.46-1.94c-.14-.08-.23.11-.14.21,1.39,1.52,2.75,3.07,4.1,4.62a27.09,27.09,0,0,1,3,4.86c0,.07.16,0,.15-.06A10,10,0,0,0,248.58,98Z" style="fill:#263238"></path><path d="M254.61,97.69A16.34,16.34,0,0,0,250,93.63c-.13-.07-.27.14-.15.22a19.68,19.68,0,0,1,4.15,4.3,28,28,0,0,1,3,5.2c0,.09.19.07.17,0A13.34,13.34,0,0,0,254.61,97.69Z" style="fill:#263238"></path><path d="M261.69,102.39a10,10,0,0,0-.47-1.29,13.59,13.59,0,0,0-1.4-2.39,28.24,28.24,0,0,0-3.86-4.1.13.13,0,0,0-.17.2A23.22,23.22,0,0,1,259.36,99a18.45,18.45,0,0,1,1.33,2.33c.19.39.36.8.52,1.21a6.46,6.46,0,0,0,.46,1.2.14.14,0,0,0,.24,0A3.63,3.63,0,0,0,261.69,102.39Z" style="fill:#263238"></path><path d="M266.3,103.55a18.41,18.41,0,0,0-1.15-2,16.14,16.14,0,0,0-1.36-1.81c-.51-.59-1-1.16-1.53-1.77a.13.13,0,1,0-.19.17,14.13,14.13,0,0,1,1.39,1.89c.39.63.8,1.24,1.19,1.86s.8,1.24,1.19,1.86A22,22,0,0,0,267,105.7c.08.1.21,0,.18-.1A9.86,9.86,0,0,0,266.3,103.55Z" style="fill:#263238"></path><path d="M222.72,156.86s-9.62-13.12-15.59-9.66,1.46,22.63,8.62,25.11a7.22,7.22,0,0,0,9.59-4.1Z" style="fill:#f7a9a0"></path><path d="M209.39,152.64c-.11,0-.13.15,0,.19,5,1.91,7.75,6.47,9.69,11.21-1.52-1.81-3.56-2.77-6-.95-.12.09,0,.29.14.26a4.46,4.46,0,0,1,4.93,1.44,21.41,21.41,0,0,1,2.43,3.9c.24.44,1,.19.86-.32,0,0,0-.08,0-.12C221.36,161.9,216.23,153.13,209.39,152.64Z" style="fill:#263238"></path><path d="M217.8,242.79c3.56,14.34-5.65,30.32-5.65,30.32-24.61,10.79-58.4,1.43-59.2-.18,0,0-1-10.82-2.81-13.87S135,240.33,131.39,236.41s-4.76-21.52-3.54-24.81,23.35-2.85,28.41-.59a182.91,182.91,0,0,0,24.47,8.33s8.05-34.29,24.17-33.71c7.4.27-1.54,15-2.76,30C201.43,224.36,215.14,232.09,217.8,242.79Z" style="fill:#f7a9a0"></path><path d="M146.06,223.92c2.34,1.44,5.31,1.55,8,2.2l8.21,1.73a134.53,134.53,0,0,1,16.22,4.59,48.23,48.23,0,0,1,7.69,3.65,15.08,15.08,0,0,1,6.08,6.13,25.83,25.83,0,0,1,2.62,16.51,28.08,28.08,0,0,0-3.74-15.86c-2.7-4.72-8.18-6.88-13.25-8.83A165,165,0,0,0,162,229.12C156.66,227.47,150.91,226.72,146.06,223.92Z" style="fill:#263238"></path><path d="M135.5,242.56l-1.76-.95c.41-.75,10-18.37,19.6-21.7,1.77-.62,4.59-1.34,7.86-2.16,9.44-2.4,25.24-6.4,25.91-11.39.29-2.18-2.78-4.4-5.4-5.88l1-1.74c4.66,2.63,6.76,5.21,6.4,7.89-.84,6.33-16.19,10.22-27.4,13.05-3.22.82-6,1.53-7.7,2.11C145.16,224.87,135.6,242.39,135.5,242.56Z" style="fill:#263238"></path><path d="M131.51,239.46l-1.58-1.23c.53-.68,13-16.64,22.49-19.95,2-.7,5.46-1.46,9.43-2.34,9.17-2,24.5-5.41,25.16-9.86.24-1.58-1.6-3.51-5.3-5.6l1-1.74c4.61,2.6,6.68,5.09,6.3,7.63-.8,5.38-12.57,8.4-26.71,11.53-3.9.86-7.28,1.6-9.2,2.27C144.16,223.28,131.64,239.3,131.51,239.46Z" style="fill:#263238"></path><path d="M162.25,197.67s-1.36-6.11,1-10.41,11.9-5.49,15.42-4.72,17.46,9.69,21.56,14.7,2.36,13-5.43,11S162.25,197.67,162.25,197.67Z" style="fill:#f7a9a0"></path><path d="M193.59,191.26c5.68,3,13.91,11.27,6.77,17.06-4.74,2.76-11.17-2.16-15.94-3.18,3.11.34,6.06,1.53,9,2.33,2.7.76,6.14,1.22,7.67-1.64,3.2-5.57-3.59-11.32-7.5-14.57Z" style="fill:#263238"></path><path d="M157.1,187s3-5.47,7.66-7.12,12.56,3.78,14.69,6.68,6.66,18.82,6.41,25.29-6.85,11.32-11.38,4.68S157.1,187,157.1,187Z" style="fill:#f7a9a0"></path><path d="M173.51,181.75a23.7,23.7,0,0,1,7.86,7.7c2.08,3.15,3,7,3.64,10.49a57.61,57.61,0,0,1,1.46,10.93,8.41,8.41,0,0,1-5.87,8.65,7.88,7.88,0,0,0,4.74-8.6,96.71,96.71,0,0,0-2-10.63c-.73-3.62-1.35-7-3.18-10.15A30.72,30.72,0,0,0,173.51,181.75Z" style="fill:#263238"></path><path d="M141.79,194.57s1.58-6.34,5.89-9.21,14,.59,17,3,12.17,17.4,13.74,24-3.87,13.26-10.41,7.69S141.79,194.57,141.79,194.57Z" style="fill:#f7a9a0"></path><path d="M157.23,185a26.13,26.13,0,0,1,10.28,5.8c3,2.65,5,6.34,6.7,9.71a61.77,61.77,0,0,1,4.59,10.73,8.62,8.62,0,0,1-3.62,10.31,8.06,8.06,0,0,0,2.46-10,98.56,98.56,0,0,0-5-10.29c-1.78-3.49-3.38-6.81-6.14-9.49A33.26,33.26,0,0,0,157.23,185Z" style="fill:#263238"></path><path d="M127.54,214.87c.2-5.34,2.41-15.52,7.51-21.06s23.82,4.4,28.89,9.11,12.56,20.7,8.16,23.49-17.33-10.56-20.58-12.7S127.54,214.87,127.54,214.87Z" style="fill:#f7a9a0"></path><path d="M139.5,218.06c2.41-2.95,6.1-5.28,10.19-4.9,4.16.58,7,3.69,10,6.06s5.73,5.33,9,7c1.65.73,3.39,1,3.68-.58a12.19,12.19,0,0,0-.12-5.36l0,.09a63.14,63.14,0,0,0-4.21-10.22c-1.73-3.24-3.75-6.32-6.71-8.38a62.89,62.89,0,0,0-9.53-5.45q-5-2.47-10.09-4.56c7,2.3,14,4.8,20.38,8.9,3.31,2.05,5.53,5.44,7.34,8.72a64.83,64.83,0,0,1,4.48,10.46l0,.05v0a13.2,13.2,0,0,1,0,6.25,3.75,3.75,0,0,1-1,1.61,2.85,2.85,0,0,1-1.82.68,6.47,6.47,0,0,1-3.17-.77c-3.62-2-6.35-4.79-9.19-7.41s-5.63-5.6-9.23-6.22S142.12,215.29,139.5,218.06Z" style="fill:#263238"></path><path d="M137.64,347.85c-5.53-15-6.21-34,19.32-92,3.53-8,60.53-1.38,59.38,7.93-2.27,18.24-17.91,47.5-24.16,56.94C176.41,344.52,141.39,358,137.64,347.85Z" style="fill:#f7a9a0"></path><path d="M135,337.68a58.89,58.89,0,0,1-1-13.31c.09-2.22.22-4.44.48-6.65a49.66,49.66,0,0,1,1.27-6.58,120.2,120.2,0,0,1,3.93-12.74,94.17,94.17,0,0,1,5.38-12.23c-1.55,4.16-2.88,8.37-4.16,12.6s-2.46,8.47-3.48,12.74c-.49,2.14-1,4.28-1.24,6.42s-.52,4.36-.7,6.55A126,126,0,0,0,135,337.68Z" style="fill:#263238"></path></g><g id="freepik--Plant--inject-146"><path d="M112,377.57c-11.55,15.64-23.6,33.79-26.53,53.41,0,.29.44.39.51.1a116.66,116.66,0,0,1,5.11-15.71c7.59-2.09,15-3.8,19-11.34,4.07-7.75,3.55-17.85,2.78-26.29C112.82,377.29,112.2,377.27,112,377.57Z" style="fill:#7C3BED"></path><path d="M91.17,415.22c5.19-11.64,11.85-23.33,20.32-32.9.06-.07.15,0,.09.09-5.54,6.82-9.75,14.24-13.87,21.8,3.83-3.88,8-7.36,11.64-11.48.07-.08.18,0,.12.12-3.6,4.32-7.53,9-12.21,12.2q-1.89,3.48-3.81,7c.31-.18.64-.33,1-.49.06,0,.11.05,0,.08-.36.18-.71.37-1.08.53-.61,1.1-1.21,2.2-1.84,3.3C91.4,415.68,91.06,415.47,91.17,415.22Z" style="fill:#263238"></path><path d="M95,411.16a67.44,67.44,0,0,0,8.87-5.92c.07-.06.18.05.11.11a46.72,46.72,0,0,1-8.85,6C95,411.45,94.89,411.24,95,411.16Z" style="fill:#263238"></path><path d="M84.11,428.06a.21.21,0,0,0,.42,0c.06-6.46,0-13,.1-19.44,1.66-3.34,5.21-5.18,7.68-7.86a34.62,34.62,0,0,0,4.61-6.42,46.18,46.18,0,0,0,5.34-17.82c.68-6.91-1.94-29.71-4.85-28.91-1.51.41-6.4,11.7-7.7,15.43A108,108,0,0,0,85.11,382C82.75,397.15,83,412.76,84.11,428.06Z" style="fill:#7C3BED"></path><path d="M84.06,400.2l0,0c.35-8.17,2.19-16.43,3.92-24.36,1.85-8.54,4-16.58,8.42-24.2.08-.14.29,0,.22.13a90.18,90.18,0,0,0-6.77,18.58c.3-.46.65-.9,1-1.33.12-.18.4,0,.28.16a11.67,11.67,0,0,1-1.37,1.94s0,0-.06,0c-1.51,6.1-2.59,12.35-3.52,18.57l.2-.24c0-.05.13,0,.1.08l-.37.61c-.47,3.17-.9,6.32-1.34,9.45,5.63-4.81,10.44-10.48,13.15-17.47,0,0,.06,0,0,0-2.66,7.25-6.84,13.69-13.29,18.09l-.36,2.53c0,.17-.3.12-.3-.05,0-.74,0-1.49.07-2.23A.17.17,0,0,1,84.06,400.2Z" style="fill:#263238"></path><path d="M86.71,388.35C91,381.93,95,375.7,98.18,368.6c0-.08.17,0,.14.06-2.65,7-6.37,14.19-11.39,19.86C86.82,388.63,86.62,388.48,86.71,388.35Z" style="fill:#263238"></path><path d="M92.43,367c1.78-3.15,3.66-6.22,5.34-9.43,0-.09.17,0,.13.08a49.39,49.39,0,0,1-5.2,9.52A.16.16,0,0,1,92.43,367Z" style="fill:#263238"></path><path d="M91.73,368.39s0,.05,0,.05A0,0,0,0,1,91.73,368.39Z" style="fill:#263238"></path><path d="M79.73,409.38a65.59,65.59,0,0,1-1.51,12.73c.07.46.14.92.2,1.39a60.55,60.55,0,0,0,2.28-14.19.44.44,0,0,0,0-.43v0a94,94,0,0,0-1.43-19.22c-2-11.87-6.37-23.26-14.65-32.16a.58.58,0,0,0-.91.19c-3.34,8.49-2.18,18.63.67,27.1A49.58,49.58,0,0,0,71,397.65C73.81,401.64,77.43,405,79.73,409.38Z" style="fill:#7C3BED"></path><path d="M65.62,361.45c7.85,12.74,13.31,27.84,14,42.88,0,.27-.44.34-.48.06-.18-1.35-.39-2.69-.61-4h0c-3.25-3.11-6.58-6.39-8.9-10.27,0-.07.05-.15.11-.09a107.15,107.15,0,0,0,8.65,9.42c-.57-3.33-1.23-6.6-2-9.83l-.62-.73c-.14-.16.09-.39.23-.23l.19.21a113.8,113.8,0,0,0-4.1-13c-2-2.38-4.23-4.44-5.69-7.31a.06.06,0,0,1,.11-.06c1.17,1.64,2.3,3.29,3.63,4.81.52.61,1.11,1.18,1.65,1.77a99.36,99.36,0,0,0-6.42-13.39A.18.18,0,0,1,65.62,361.45Z" style="fill:#263238"></path><path d="M67.21,377.16c2.54,3.42,5.43,6.67,7.78,10.2.07.1-.08.21-.16.13A52.48,52.48,0,0,1,67,377.26C67,377.15,67.13,377.06,67.21,377.16Z" style="fill:#263238"></path><path d="M75.35,388.15l.11.11c.07.07,0,.19-.12.12l-.11-.11A.09.09,0,0,1,75.35,388.15Z" style="fill:#263238"></path><path d="M53.33,385.93a39.09,39.09,0,0,0,8.28,19.43,20.66,20.66,0,0,0,6.71,5.24c2.91,1.44,6,3.1,9,4.28a59.26,59.26,0,0,1,3.17,11.27c.09-.33.19-.67.29-1-1.93-16.59-12.67-30.77-26.4-39.87A.66.66,0,0,0,53.33,385.93Z" style="fill:#7C3BED"></path><path d="M58.07,390.84c-.09-.09,0-.26.14-.19a56.18,56.18,0,0,1,17.5,21.57c.1.22-.21.42-.34.2-.64-1.12-1.29-2.21-2-3.28h0c-3.14-.59-6.11-2.79-8.43-4.89-.07-.05,0-.15.09-.09A19.59,19.59,0,0,0,69,407c1.27.64,2.65,1.05,4,1.57q-1.74-2.76-3.64-5.32A36.58,36.58,0,0,1,60,397.9c-.08-.06,0-.21.09-.15a93.39,93.39,0,0,0,8.76,4.68,79.25,79.25,0,0,0-6.18-7.21c-1.07-.56-2.15-1.12-3.18-1.73-.09,0,0-.19.07-.16a11.67,11.67,0,0,1,2.43,1.2C60.72,393.28,59.44,392,58.07,390.84Z" style="fill:#263238"></path><path d="M58.36,396.56a3.39,3.39,0,0,1,.53.38s0,.11-.06.09a3.76,3.76,0,0,1-.55-.32C58.18,396.65,58.27,396.5,58.36,396.56Z" style="fill:#263238"></path><polygon points="102.18 462.07 64.55 462.07 67.59 427.81 68.26 420.25 98.47 420.25 99.14 427.81 102.18 462.07" style="fill:#455a64"></polygon><polygon points="99.14 427.81 67.81 425.32 68.26 420.25 98.47 420.25 99.14 427.81" style="fill:#37474f"></polygon><rect x="66.46" y="414.97" width="33.82" height="7.48" style="fill:#455a64"></rect></g><g id="freepik--Table--inject-146"><path d="M53.32,462.07c126-.61,267.35-.62,393.36,0-126,.62-267.35.61-393.36,0Z" style="fill:#263238"></path></g><g id="freepik--speech-bubble--inject-146"><path d="M378.16,98.3a44.08,44.08,0,0,1-73.68,27.89l-22.06,3.24,11-19.07a44.1,44.1,0,1,1,84.7-12.06Z" style="fill:#fff"></path><path d="M378.16,98.3a44.33,44.33,0,0,1-8.9,22.35,48.57,48.57,0,0,1-4,4.61,51.47,51.47,0,0,1-4.65,3.94A43.48,43.48,0,0,1,350,135.12,44,44,0,0,1,338.1,138a43.24,43.24,0,0,1-6.13.12,39.21,39.21,0,0,1-6.1-.64,44.54,44.54,0,0,1-21.82-10.77l.52.16-22,3.38-1.6.25.81-1.41,11-19.11-.05.75a44.56,44.56,0,0,1,2.71-39.3,45.19,45.19,0,0,1,13.81-14.71A44.89,44.89,0,0,1,348,51.45a45.14,45.14,0,0,1,17,10.43A44.33,44.33,0,0,1,378.16,98.3Zm0,0a43.62,43.62,0,0,0-50-47.73,43.34,43.34,0,0,0-18.21,7.2,45.52,45.52,0,0,0-13.2,14.39,43.5,43.5,0,0,0-5.59,18.66,43.94,43.94,0,0,0,3.1,19.21l.16.4-.21.36-11.1,19-.79-1.16,22.08-3.09.3,0,.22.21A43.43,43.43,0,0,0,326,136.6a37.57,37.57,0,0,0,6,.73,42.19,42.19,0,0,0,17.81-2.6A41,41,0,0,0,360.46,129a50.8,50.8,0,0,0,4.66-3.89,48.26,48.26,0,0,0,4-4.56A44.23,44.23,0,0,0,378.16,98.3Z" style="fill:#263238"></path><path d="M350,101.27a48.43,48.43,0,0,1-15.55,13.48,48.46,48.46,0,0,1-15.54-13.48c-5.47-7.25-5.2-18.58,2.63-21,8.66-2.72,12.91,10.31,12.91,10.31s4.32-13.11,12.92-10.31C355.19,82.77,355.49,94,350,101.27Z" style="fill:#7C3BED"></path></g></svg>
